<svg id="Layer_1" data-name="Layer 1" xmlns="http://www.w3.org/2000/svg" xmlns:xlink="http://www.w3.org/1999/xlink" viewBox="0 0 589.08 83.39"><defs><style>.cls-1{fill:url(#linear-gradient);}.cls-2{fill:#fff;}.cls-3{fill:url(#New_Gradient_Swatch_2);}.cls-4{fill:url(#New_Gradient_Swatch_2-2);}.cls-5{fill:url(#New_Gradient_Swatch_2-3);}.cls-6{fill:url(#New_Gradient_Swatch_2-4);}.cls-7{fill:url(#New_Gradient_Swatch_2-5);}.cls-8{fill:url(#New_Gradient_Swatch_2-6);}.cls-9{fill:url(#New_Gradient_Swatch_2-7);}.cls-10{fill:url(#New_Gradient_Swatch_2-8);}.cls-11{fill:url(#New_Gradient_Swatch_2-9);}.cls-12{fill:url(#New_Gradient_Swatch_2-10);}.cls-13{fill:url(#New_Gradient_Swatch_2-11);}.cls-14{fill:url(#New_Gradient_Swatch_2-12);}.cls-15{fill:url(#New_Gradient_Swatch_2-13);}.cls-16{fill:url(#New_Gradient_Swatch_2-14);}.cls-17{fill:url(#New_Gradient_Swatch_2-15);}.cls-18{fill:url(#New_Gradient_Swatch_2-16);}.cls-19{fill:url(#New_Gradient_Swatch_2-17);}.cls-20{fill:url(#New_Gradient_Swatch_2-18);}.cls-21{fill:url(#New_Gradient_Swatch_2-19);}.cls-22{fill:url(#New_Gradient_Swatch_2-20);}</style><linearGradient id="linear-gradient" x1="-19.83" y1="-407.45" x2="-18.33" y2="-336.95" gradientUnits="userSpaceOnUse"><stop offset="0" stop-color="#3fa9f5"/><stop offset="1" stop-color="#112530"/></linearGradient><linearGradient id="New_Gradient_Swatch_2" x1="32.15" y1="-336.41" x2="1158.6" y2="-303.42" xlink:href="#linear-gradient"/><linearGradient id="New_Gradient_Swatch_2-2" x1="32.18" y1="-337.4" x2="1158.62" y2="-304.4" xlink:href="#linear-gradient"/><linearGradient id="New_Gradient_Swatch_2-3" x1="32.2" y1="-338.01" x2="1158.64" y2="-305.01" xlink:href="#linear-gradient"/><linearGradient id="New_Gradient_Swatch_2-4" x1="32.22" y1="-338.64" x2="1158.66" y2="-305.65" xlink:href="#linear-gradient"/><linearGradient id="New_Gradient_Swatch_2-5" x1="32.24" y1="-339.33" x2="1158.68" y2="-306.33" xlink:href="#linear-gradient"/><linearGradient id="New_Gradient_Swatch_2-6" x1="32.26" y1="-340.02" x2="1158.7" y2="-307.02" xlink:href="#linear-gradient"/><linearGradient id="New_Gradient_Swatch_2-7" x1="32.28" y1="-340.92" x2="1158.73" y2="-307.93" xlink:href="#linear-gradient"/><linearGradient id="New_Gradient_Swatch_2-8" x1="32.31" y1="-341.87" x2="1158.75" y2="-308.87" xlink:href="#linear-gradient"/><linearGradient id="New_Gradient_Swatch_2-9" x1="32.33" y1="-342.46" x2="1158.77" y2="-309.46" xlink:href="#linear-gradient"/><linearGradient id="New_Gradient_Swatch_2-10" x1="32.35" y1="-343.05" x2="1158.79" y2="-310.05" xlink:href="#linear-gradient"/><linearGradient id="New_Gradient_Swatch_2-11" x1="32.4" y1="-345.06" x2="1158.85" y2="-312.06" xlink:href="#linear-gradient"/><linearGradient id="New_Gradient_Swatch_2-12" x1="32.42" y1="-345.47" x2="1158.86" y2="-312.47" xlink:href="#linear-gradient"/><linearGradient id="New_Gradient_Swatch_2-13" x1="32.44" y1="-346.2" x2="1158.88" y2="-313.2" xlink:href="#linear-gradient"/><linearGradient id="New_Gradient_Swatch_2-14" x1="32.46" y1="-346.81" x2="1158.9" y2="-313.81" xlink:href="#linear-gradient"/><linearGradient id="New_Gradient_Swatch_2-15" x1="32.48" y1="-347.4" x2="1158.92" y2="-314.4" xlink:href="#linear-gradient"/><linearGradient id="New_Gradient_Swatch_2-16" x1="32.49" y1="-348.12" x2="1158.94" y2="-315.12" xlink:href="#linear-gradient"/><linearGradient id="New_Gradient_Swatch_2-17" x1="32.51" y1="-348.65" x2="1158.95" y2="-315.65" xlink:href="#linear-gradient"/><linearGradient id="New_Gradient_Swatch_2-18" x1="32.53" y1="-349.3" x2="1158.97" y2="-316.31" xlink:href="#linear-gradient"/><linearGradient id="New_Gradient_Swatch_2-19" x1="32.55" y1="-349.89" x2="1158.99" y2="-316.89" xlink:href="#linear-gradient"/><linearGradient id="New_Gradient_Swatch_2-20" x1="32.57" y1="-350.59" x2="1159.01" y2="-317.59" xlink:href="#linear-gradient"/></defs><title>bobby-conner-logo</title><path class="cls-1" d="M12.5-399.76a43.2,43.2,0,0,0-25.23-3.39,37.58,37.58,0,0,0-21.2,11.71A35.49,35.49,0,0,0-40.61-355a36.87,36.87,0,0,0,6.79,10.81,35.2,35.2,0,0,0,14,9.8c5.67,2.25,11.35,2.52,17.33,2.52-1.47,1-3.5,1.21-5.22,1.5a30.66,30.66,0,0,1-6.55.09,38.44,38.44,0,0,1-12.35-2.78,39.89,39.89,0,0,1-18.81-15.53,37.54,37.54,0,0,1,6.27-47.49,41.1,41.1,0,0,1,25.08-10.78,43.31,43.31,0,0,1,14,1.16,32.46,32.46,0,0,1,6.74,2.56,64.53,64.53,0,0,1,5.78,3.39C11.63-400.14,12.53-399.79,12.5-399.76Z" transform="translate(51.16 407)"/><path class="cls-2" d="M-33.78-334.62C-19.93-325.18.65-324.35,13.73-336c1.21-1.07,3.21-2.33,3.87-3.87,0.26-.61-1.39-1.26-1.94-1.58-1.06-.63-2.12-1.25-3.2-1.84-3.85-2.12-7.77-4.06-11.71-6-3.75-1.82-7.64-3.6-11.48-5.18-2-.79-3.92-1.64-5.9-2.33a18.66,18.66,0,0,0-6.52-.62,34.48,34.48,0,0,0-5.79.82c-1.22.23-3.82,1.44-4.41-.5-0.44-1.45,2.67-3.6,3.56-4.41,1.52-1.38,3.83-1.15,5.69-1.18,4.1-.07,8.45.08,12.27-1.76a15.91,15.91,0,0,1,2.37-1.41c0.7-.18,2,0.77,2.58,1.07l6.43,3L12-355.89,18.11-353c1.89,0.9,4,2.25,6,2.66a2.28,2.28,0,0,0,.5-1.86c-0.34-.78-1.45-1.11-2.11-1.45l-6.42-3.21c-4-2-8-4-12.07-6-3.28-1.62-6.6-3.14-9.9-4.71-1.55-.74-3.06-1.55-4.62-2.27a10.15,10.15,0,0,1-1.9-1.08,3.28,3.28,0,0,1-1.19-2c1.53-.33,3.1-0.23,4.65-0.53,1.86-.37,3.65-1,5.5-1.43,3.76-.81,7.67-0.7,11.49-0.85-0.41-1.23-3.36-1.43-4.37-1.66A35.31,35.31,0,0,0-2.78-378a19.19,19.19,0,0,0-6.43.44,28.9,28.9,0,0,1-6.27,1.2,7,7,0,0,1-5.25-1.92c-1.21-1-3.11-2.36-2.55-4.27,0.49-1.66,2.81-2.75,4.16-3.49a28.25,28.25,0,0,1,5.8-2.31c8.67-2.47,17.68-.5,26.42.45a19.57,19.57,0,0,1,3.1.41c0.4,0.11.87,0.51,1.15,0.1a2,2,0,0,0-.63-1,54.3,54.3,0,0,0-4.87-4.5A40.6,40.6,0,0,0,.33-398.68c-4.74-1.63-9.62-1.74-14.57-1.69a31.41,31.41,0,0,1,13-1.36A43.53,43.53,0,0,1,11-398.5a40.85,40.85,0,0,1,17.7,14.76,38.12,38.12,0,0,1,6.16,25,39.06,39.06,0,0,1-10.66,22.66,41.49,41.49,0,0,1-27.8,12.41c-10.86.65-21.82-3.7-30.14-11C-31.38-333-33.58-334.45-33.78-334.62Z" transform="translate(51.16 407)"/><path class="cls-2" d="M-11.35-367.08c-2.48,2.54-6,2.22-9.3,2.25-1.87,0-3.75,0-5.62-.08-1.59,0-3.41-.3-4.93.3a4.61,4.61,0,0,0-2.25,2.09c-0.8,1.4-.78,3.09-1.52,4.45s-2.41.55-2.92-.61a32.1,32.1,0,0,1-1.44-5.4,22.18,22.18,0,0,1-1-5.34c0-1.67,1.23-2.89,2.36-4,2.76-2.62,6.08-4,9.44-5.58a5.11,5.11,0,0,1,2.09-.86c0.64,0,1.28,1,1.72,1.36,1.42,1.3,2.88,2.56,4.35,3.79,3,2.52,6.13,5,9.06,7.59C-12.66-365.75-11.95-367.64-11.35-367.08Z" transform="translate(51.16 407)"/><path class="cls-2" d="M42.27-389.2q0-2.78-.07-4.86t-0.2-3.6q-0.15-1.52-.31-2.54a10.89,10.89,0,0,0-.42-1.7V-402h4.36a29.7,29.7,0,0,0,3.22-.26,47.7,47.7,0,0,1,5.19-.23,18.33,18.33,0,0,1,5.43.77,13.07,13.07,0,0,1,4.31,2.21A10.17,10.17,0,0,1,66.6-396a10.79,10.79,0,0,1,1,4.8,12.25,12.25,0,0,1-.62,4A9.63,9.63,0,0,1,65.27-384a10,10,0,0,1-2.72,2.23,15.26,15.26,0,0,1-3.49,1.42,20.37,20.37,0,0,1,5.07,1.42,14.27,14.27,0,0,1,3.94,2.5,10.54,10.54,0,0,1,2.55,3.52,10.83,10.83,0,0,1,.9,4.47q0,6.91-4.55,10.36t-13.62,3.49q-1,0-2.29-.08l-2.67-.18L45.72-355q-1.3-.07-2.28-0.07H41.27v-0.14a16.86,16.86,0,0,0,.38-1.7q0.18-1,.31-2.52t0.2-3.57q0.07-2.07.11-4.87V-389.2Zm6,8.45q0.92,0.1,1.64.11h1.54a12.29,12.29,0,0,0,4.06-.64,8.23,8.23,0,0,0,3.13-1.92,8.72,8.72,0,0,0,2-3.19,12.67,12.67,0,0,0,.72-4.47,13.36,13.36,0,0,0-.52-3.86,8.25,8.25,0,0,0-1.56-3,6.82,6.82,0,0,0-2.54-1.88,8.56,8.56,0,0,0-3.44-.65,21.09,21.09,0,0,0-2.18.1q-0.93.1-1.59,0.23a7.19,7.19,0,0,0-1.28.33v18.84h0Zm6,2.46a35.54,35.54,0,0,0-3.73.16Q49-378,48.22-377.8v9.92q0,3.83.13,6.32t0.36,4.06q1.24,0.16,2.49.29a20,20,0,0,0,2,.13q6.12,0,9-2.73t2.83-8.4a11.89,11.89,0,0,0-.67-4.08,8.71,8.71,0,0,0-2-3.19A8.93,8.93,0,0,0,59-377.56,13.67,13.67,0,0,0,54.27-378.29Z" transform="translate(51.16 407)"/><path class="cls-2" d="M100.27-402.82a27.88,27.88,0,0,1,10.14,1.74,23.83,23.83,0,0,1,8,5,22.79,22.79,0,0,1,5.27,7.74,25.53,25.53,0,0,1,1.9,10,26.24,26.24,0,0,1-.72,6.12,24.93,24.93,0,0,1-2.11,5.7,24.07,24.07,0,0,1-3.42,5,21.93,21.93,0,0,1-4.63,3.93A22.71,22.71,0,0,1,109-355a23.71,23.71,0,0,1-6.78.93,28.34,28.34,0,0,1-10.1-1.75,23.51,23.51,0,0,1-8-5,22.64,22.64,0,0,1-5.27-7.71,25.48,25.48,0,0,1-1.9-10,26.22,26.22,0,0,1,.72-6.12,25.54,25.54,0,0,1,2.11-5.73,24,24,0,0,1,3.4-5,22,22,0,0,1,4.62-3.94,22.3,22.3,0,0,1,5.76-2.6A23.88,23.88,0,0,1,100.27-402.82ZM102.14-357a16.49,16.49,0,0,0,6.65-1.31,14.49,14.49,0,0,0,5.19-3.8,17.71,17.71,0,0,0,3.39-6.07,25.36,25.36,0,0,0,1.21-8.14,35.79,35.79,0,0,0-1.16-9.35,22.63,22.63,0,0,0-3.45-7.46,16.27,16.27,0,0,0-5.7-4.93,17,17,0,0,0-8-1.78,16.68,16.68,0,0,0-6.65,1.29,14.5,14.5,0,0,0-5.19,3.75,17.36,17.36,0,0,0-3.39,6,25.18,25.18,0,0,0-1.19,8.1A36.49,36.49,0,0,0,85-371.35a22.54,22.54,0,0,0,3.44,7.51,16.47,16.47,0,0,0,5.73,5,16.85,16.85,0,0,0,8,1.83h0Z" transform="translate(51.16 407)"/><path class="cls-2" d="M133.9-389.2q0-2.78-.07-4.86t-0.2-3.6q-0.13-1.52-.31-2.54a16.06,16.06,0,0,0-.38-1.7V-402h4.33a29.7,29.7,0,0,0,3.19-.23,47.7,47.7,0,0,1,5.19-.23,18.33,18.33,0,0,1,5.43.77,13.07,13.07,0,0,1,4.31,2.21,10.17,10.17,0,0,1,2.88,3.62,10.79,10.79,0,0,1,1,4.8,12.25,12.25,0,0,1-.62,4A9.63,9.63,0,0,1,156.9-384a10,10,0,0,1-2.72,2.23,15.26,15.26,0,0,1-3.49,1.42,20.37,20.37,0,0,1,5.07,1.42,14.27,14.27,0,0,1,3.94,2.5,10.54,10.54,0,0,1,2.57,3.57,10.83,10.83,0,0,1,.9,4.47q0,6.91-4.55,10.36T145-354.58q-1,0-2.29-.08l-2.67-.18-2.67-.16q-1.28-.08-2.26-0.08H133v-0.13a16.87,16.87,0,0,0,.38-1.7q0.18-1,.31-2.52t0.21-3.57q0.07-2.07.07-4.86V-389.2h0Zm6,8.45q0.92,0.1,1.64.11h1.54a12.29,12.29,0,0,0,4.06-.64,8.23,8.23,0,0,0,3.13-1.92,8.72,8.72,0,0,0,2-3.19,12.67,12.67,0,0,0,.72-4.47,13.36,13.36,0,0,0-.52-3.86,8.25,8.25,0,0,0-1.56-3,6.82,6.82,0,0,0-2.54-1.88,8.56,8.56,0,0,0-3.44-.65,21.09,21.09,0,0,0-2.18.1q-0.93.1-1.59,0.23a7.19,7.19,0,0,0-1.28.33v18.84h0Zm6.06,2.46a35.54,35.54,0,0,0-3.73.16q-1.51.16-2.32,0.33v9.92q0,3.83.13,6.32t0.36,4.06q1.24,0.16,2.49.29a20,20,0,0,0,2,.13q6.12,0,9-2.73t2.83-8.4a11.89,11.89,0,0,0-.67-4.08,8.71,8.71,0,0,0-2-3.19,8.93,8.93,0,0,0-3.34-2.08,13.67,13.67,0,0,0-4.8-.73h0Z" transform="translate(51.16 407)"/><path class="cls-2" d="M171.51-389.2q0-2.78-.07-4.86t-0.2-3.6q-0.13-1.52-.31-2.54a16.07,16.07,0,0,0-.38-1.7V-402h4.36a29.7,29.7,0,0,0,3.19-.23,47.7,47.7,0,0,1,5.19-.23,18.33,18.33,0,0,1,5.43.77,13.07,13.07,0,0,1,4.31,2.21,10.17,10.17,0,0,1,2.82,3.48,10.79,10.79,0,0,1,1,4.8,12.25,12.25,0,0,1-.62,4,9.63,9.63,0,0,1-1.72,3.2,10,10,0,0,1-2.72,2.23,15.26,15.26,0,0,1-3.49,1.42,20.37,20.37,0,0,1,5.07,1.35,14.27,14.27,0,0,1,3.94,2.5,10.54,10.54,0,0,1,2.54,3.5,10.83,10.83,0,0,1,.9,4.47q0,6.91-4.55,10.36t-13.62,3.45q-1,0-2.29-.08l-2.67-.18-2.67-.18h-4.4v0a16.87,16.87,0,0,0,.38-1.7q0.18-1,.33-2.53t0.2-3.58q0.07-2.07.07-4.86V-389.2h0Zm6,8.45q0.92,0.1,1.64.11h1.54a12.29,12.29,0,0,0,4.06-.64,8.23,8.23,0,0,0,3.1-1.92,8.72,8.72,0,0,0,2-3.19,12.67,12.67,0,0,0,.72-4.47,13.36,13.36,0,0,0-.52-3.86,8.25,8.25,0,0,0-1.56-3A6.82,6.82,0,0,0,186-399.6a8.56,8.56,0,0,0-3.44-.65,21.09,21.09,0,0,0-2.18.1q-0.93.1-1.59,0.23a7.19,7.19,0,0,0-1.28.33v18.84h0Zm6.06,2.46a35.54,35.54,0,0,0-3.73.16q-1.51.16-2.32,0.33v9.92q0,3.83.13,6.32T178-357.5q1.24,0.16,2.49.29a20,20,0,0,0,2,.13q6.12,0,9-2.73t2.83-8.4a11.89,11.89,0,0,0-.67-4.08,8.71,8.71,0,0,0-2-3.19,8.93,8.93,0,0,0-3.39-2.08,13.67,13.67,0,0,0-4.74-.73h0Z" transform="translate(51.16 407)"/><path class="cls-2" d="M227.27-377.61v9.73q0,2.78.07,4.86t0.2,3.58q0.13,1.51.31,2.52a17.18,17.18,0,0,0,.38,1.7v0.14h-7.86v-0.13a16.86,16.86,0,0,0,.38-1.7,25.18,25.18,0,0,0,.29-2.52q0.11-1.51.2-3.58t0.08-4.86V-377l-14.61-19.91q-0.75-1-1.49-1.87a19.76,19.76,0,0,0-1.37-1.49,15,15,0,0,0-1.18-1.06l-0.82-.62V-402h9.92a8.3,8.3,0,0,0,.64,2.47,18,18,0,0,0,2.31,4l10.74,14.7L236-396.21q0.56-.82,1.11-1.67t1-1.64a13,13,0,0,0,.74-1.48,3,3,0,0,0,.28-1.11h6.38v0.17q-0.72.62-1.93,1.85a25,25,0,0,0-2.62,3.26Z" transform="translate(51.16 407)"/><path class="cls-2" d="M307.9-394.83l-0.29.13a19.37,19.37,0,0,0-6.14-3.77,22.74,22.74,0,0,0-15.44-.11,16.54,16.54,0,0,0-5.91,3.75,17,17,0,0,0-3.85,6,22.45,22.45,0,0,0-1.42,8.12,32.2,32.2,0,0,0,1.31,9.35,21.64,21.64,0,0,0,3.9,7.51,18.12,18.12,0,0,0,6.47,5,21.14,21.14,0,0,0,9,1.82,18,18,0,0,0,3.73-.39,17.61,17.61,0,0,0,3.58-1.16,18.34,18.34,0,0,0,3.24-1.87,16.77,16.77,0,0,0,2.77-2.5l0.32,0.24-2.58,6.63a28.21,28.21,0,0,1-5.42,1.51,35.32,35.32,0,0,1-6,.51,33.48,33.48,0,0,1-11.08-1.75,25.48,25.48,0,0,1-8.64-5,22.38,22.38,0,0,1-5.63-7.71,24.22,24.22,0,0,1-2-10,23.67,23.67,0,0,1,.8-6.12,24.29,24.29,0,0,1,2.34-5.73,23.56,23.56,0,0,1,3.8-5,24.36,24.36,0,0,1,5.16-3.94,26.36,26.36,0,0,1,6.38-2.6,29.11,29.11,0,0,1,7.55-.93,34.57,34.57,0,0,1,11.72,1.93Z" transform="translate(51.16 407)"/><path class="cls-2" d="M336.71-402.82a27.87,27.87,0,0,1,10.14,1.74,23.84,23.84,0,0,1,8,5,22.8,22.8,0,0,1,5.27,7.74,25.53,25.53,0,0,1,1.9,10,26.27,26.27,0,0,1-.72,6.12,25,25,0,0,1-2.11,5.7,24.09,24.09,0,0,1-3.42,5,22,22,0,0,1-4.63,3.93,22.71,22.71,0,0,1-5.79,2.59,23.71,23.71,0,0,1-6.78.93,28.33,28.33,0,0,1-10.1-1.75,23.51,23.51,0,0,1-8-5,22.64,22.64,0,0,1-5.27-7.71,25.49,25.49,0,0,1-1.9-10,26.22,26.22,0,0,1,.72-6.12,25.54,25.54,0,0,1,2.11-5.73,24,24,0,0,1,3.41-5,22,22,0,0,1,4.62-3.94,22.28,22.28,0,0,1,5.76-2.6A23.88,23.88,0,0,1,336.71-402.82ZM338.58-357a16.5,16.5,0,0,0,6.69-1.3,14.5,14.5,0,0,0,5.19-3.8,17.7,17.7,0,0,0,3.39-6.09,25.35,25.35,0,0,0,1.21-8.14,35.79,35.79,0,0,0-1.16-9.35,22.65,22.65,0,0,0-3.45-7.46,16.28,16.28,0,0,0-5.76-4.94,17,17,0,0,0-8-1.78,16.68,16.68,0,0,0-6.65,1.29,14.5,14.5,0,0,0-5.19,3.75,17.36,17.36,0,0,0-3.39,6,25.2,25.2,0,0,0-1.19,8.14,36.51,36.51,0,0,0,1.15,9.35,22.54,22.54,0,0,0,3.43,7.51,16.46,16.46,0,0,0,5.73,5,16.85,16.85,0,0,0,8,1.81h0Z" transform="translate(51.16 407)"/><path class="cls-2" d="M371.19-402l33.72,35.88v-23q0-2.78-.07-4.86t-0.2-3.6q-0.13-1.52-.31-2.54a16,16,0,0,0-.38-1.7V-402h5.83v0.1a14.93,14.93,0,0,0-.36,1.7q-0.17,1-.29,2.54t-0.2,3.6q-0.08,2.06-.08,4.86v34.77H407.7L374-390.28v22.4q0,2.78.07,4.86t0.2,3.58q0.13,1.51.29,2.52a14.94,14.94,0,0,0,.36,1.7v0.14h-5.83v-0.13a16.86,16.86,0,0,0,.38-1.7q0.18-1,.31-2.52T370-363q0.07-2.07.07-4.86V-389.2q0-2.78-.07-4.86t-0.2-3.6q-0.13-1.52-.31-2.54a16.06,16.06,0,0,0-.38-1.7V-402h2.1Z" transform="translate(51.16 407)"/><path class="cls-2" d="M420.72-402l33.72,35.88v-23q0-2.78-.07-4.86t-0.2-3.6q-0.13-1.52-.31-2.54a16.06,16.06,0,0,0-.38-1.7V-402h5.83v0.1a14.94,14.94,0,0,0-.36,1.7q-0.17,1-.29,2.54t-0.19,3.58q-0.07,2.08-.07,4.86v34.79h-1.13l-33.73-35.85v22.4q0,2.78.07,4.86t0.2,3.58q0.13,1.51.29,2.52a14.94,14.94,0,0,0,.36,1.7v0.14h-5.83v-0.13a16.85,16.85,0,0,0,.38-1.7,21.15,21.15,0,0,0,.26-2.53q0.13-1.51.2-3.58t0.07-4.86V-389.2q0-2.78-.07-4.86t-0.2-3.6q-0.13-1.52-.31-2.54a16.06,16.06,0,0,0-.38-1.7V-402h2.14Z" transform="translate(51.16 407)"/><path class="cls-2" d="M476.56-402.08l7.42-.08q3.37,0,5.76-.15a26.41,26.41,0,0,0,3.24-.26l-1.6,4.35a24.13,24.13,0,0,0-2.53-.52q-1.25-.2-3-0.38a40.78,40.78,0,0,0-4.11-.18h-1.89l-2.11.11-2.39.13v18q3.37,0,6.09-.2l4.62-.33q2.23-.2,3.93-0.46l-1,4.75q-2.26-.29-4.62-0.56-2-.23-4.42-0.41t-4.58-.18V-358a71,71,0,0,0,7.1-.33q3.24-.33,5.66-0.75,2.81-.46,5.14-1.08l-1,5.3-1.18-.07-1.75-.07H468.42v-0.21a16.86,16.86,0,0,0,.38-1.7q0.18-1,.31-2.52t0.2-3.58q0.07-2.07.07-4.86V-389.2q0-2.78-.07-4.86t-0.2-3.6q-0.13-1.52-.26-2.54-0.15-.86-0.38-1.7V-402Q472.52-402,476.56-402.08Z" transform="translate(51.16 407)"/><path class="cls-2" d="M508.2-367.88q0,2.78.08,4.86t0.2,3.58a25.19,25.19,0,0,0,.29,2.52,17.18,17.18,0,0,0,.38,1.7v0.14h-7.88v-0.13a16.86,16.86,0,0,0,.38-1.7q0.18-1,.31-2.52t0.2-3.58q0.07-2.07.11-4.87V-389.2q0-2.78-.07-4.86t-0.2-3.6q-0.15-1.52-.31-2.54-0.15-.86-0.38-1.7V-402l1.38,0.13c0.41,0,.88.07,1.39,0.08h1.59a25.8,25.8,0,0,0,3.45-.31,40.56,40.56,0,0,1,5.55-.31,19,19,0,0,1,5.81.85,13.62,13.62,0,0,1,4.62,2.51,11.35,11.35,0,0,1,3.06,4,12.69,12.69,0,0,1,1.1,5.39,15.13,15.13,0,0,1-.61,4.37,13.53,13.53,0,0,1-1.7,3.65,13.3,13.3,0,0,1-2.64,2.9,15.21,15.21,0,0,1-3.46,2.08l11.49,16.14q0.85,1.21,1.59,2.1a16,16,0,0,0,1.41,1.51,10,10,0,0,0,1.29,1,7.08,7.08,0,0,0,1.28.67v0.16h-9.46a5.82,5.82,0,0,0-.64-1.65,17.86,17.86,0,0,0-1.26-2L515-375.08a32.36,32.36,0,0,1-3.31.16,21,21,0,0,1-3.47-.29v7.33h0Zm0-9.92a17.37,17.37,0,0,0,5.88.16,10.14,10.14,0,0,0,4.58-1.87,9.44,9.44,0,0,0,3-3.91,15.18,15.18,0,0,0,1.06-6,16.57,16.57,0,0,0-.56-4.45,9.55,9.55,0,0,0-1.65-3.39,7.43,7.43,0,0,0-2.77-2.16,9.23,9.23,0,0,0-3.9-.77,23,23,0,0,0-2.46.11q-1,.11-1.77.25a10,10,0,0,0-1.41.36v21.67h0Z" transform="translate(51.16 407)"/><path class="cls-3" d="M42.45-344.73h9.4v2H44.63v4.9h7v2h-7v6.61h7.22v2h-9.4v-17.51Z" transform="translate(51.16 407)"/><path class="cls-4" d="M68.07-331.62l-2,4.39H63.73l8.35-18.24,8.35,18.24H78.09l-2-4.39h-8Zm4-9.07L69-333.61h6.22Z" transform="translate(51.16 407)"/><path class="cls-5" d="M108.85-336.08v0.7a8.13,8.13,0,0,1-7.76,8.48h-0.53a9.1,9.1,0,0,1-8.82-9.38,9.1,9.1,0,0,1,9.38-8.82,9.1,9.1,0,0,1,6.81,3.39l-1.53,1.46a6.9,6.9,0,0,0-9.65-1.45A6.9,6.9,0,0,0,94-336c0,3.67,3,7.15,6.8,7.15,2.72,0,5.64-2.34,5.73-5.2H102v-2h6.9Z" transform="translate(51.16 407)"/><path class="cls-6" d="M124.27-329.23h5.31v2h-7.5v-17.5h2.19v15.5Z" transform="translate(51.16 407)"/><path class="cls-7" d="M142.08-344.73h9.4v2h-7.21v4.9h7v2h-7v6.61h7.22v2h-9.4v-17.51h0Z" transform="translate(51.16 407)"/><path class="cls-8" d="M173-341.41a3,3,0,0,0-2.81-1.67,2.76,2.76,0,0,0-2.92,2.5c0,1.37,1.35,2.09,2.44,2.51l1.25,0.49c2.48,1,4.34,2.34,4.34,5.27a5.39,5.39,0,0,1-5.33,5.45h-0.26a5.45,5.45,0,0,1-5.41-4.9l2.2-.46a3.31,3.31,0,0,0,3.18,3.44,3.31,3.31,0,0,0,3.44-3.18,3.31,3.31,0,0,0,0-.35c0-1.88-1.51-2.69-3-3.32l-1.26-.51c-2-.86-3.81-2-3.81-4.43,0-2.83,2.51-4.53,5.15-4.53a5,5,0,0,1,4.5,2.65Z" transform="translate(51.16 407)"/><path class="cls-9" d="M212.27-331.78l5.2-13h2.38l-7.58,18.48-7.61-18.43h2.39Z" transform="translate(51.16 407)"/><path class="cls-10" d="M234.5-327.23h-2.18v-17.5h2.18v17.5Z" transform="translate(51.16 407)"/><path class="cls-11" d="M248.85-344.73h9.45v2h-7.25v4.9h7v2h-7v6.61h7.22v2h-9.42v-17.51h0Z" transform="translate(51.16 407)"/><path class="cls-12" d="M277.27-332.2l5-12.88,4.94,12.9,4.9-12.53h2.37l-7.26,18.2-5-12.86-5,12.84L270-344.73h2.37Z" transform="translate(51.16 407)"/><path class="cls-13" d="M327.57-338.79h0l-2,11.56h-2.3l3.58-18.24,6,13.79,6-13.79,3.57,18.24h-2.25l-2-11.56h0l-5.25,11.93Z" transform="translate(51.16 407)"/><path class="cls-14" d="M357.51-327.23h-2.18v-17.5h2.18v17.5Z" transform="translate(51.16 407)"/><path class="cls-15" d="M371.62-345.57l13.14,13.76v-12.92h2.18v18.22l-13.09-13.76v13h-2.18v-18.3h-0.05Z" transform="translate(51.16 407)"/><path class="cls-16" d="M403.21-327.23H401v-17.5h2.18v17.5Z" transform="translate(51.16 407)"/><path class="cls-17" d="M425.27-341.41a3,3,0,0,0-2.77-1.67,2.76,2.76,0,0,0-2.92,2.48c0,1.37,1.35,2.09,2.44,2.51l1.25,0.51c2.48,1,4.34,2.34,4.34,5.27a5.39,5.39,0,0,1-5.33,5.45H422a5.45,5.45,0,0,1-5.41-4.9l2.2-.46a3.31,3.31,0,0,0,3.18,3.44,3.31,3.31,0,0,0,3.44-3.18,3.31,3.31,0,0,0,0-.35c0-1.88-1.51-2.69-3-3.32l-1.21-.51c-2-.86-3.81-2-3.81-4.43,0-2.83,2.51-4.53,5.15-4.53a5,5,0,0,1,4.5,2.65Z" transform="translate(51.16 407)"/><path class="cls-18" d="M445.76-327.23h-2.19v-15.5h-4.15v-2h10.49v2h-4.15v15.5Z" transform="translate(51.16 407)"/><path class="cls-19" d="M473.56-327.23h-2.65l-5.15-7.4h-0.91v7.4h-2.18v-17.5h2.6a9.25,9.25,0,0,1,4.62.81,4.84,4.84,0,0,1,2.3,4.18,4.77,4.77,0,0,1-4.2,4.9Zm-8.71-9.21h0.7c2.23,0,4.64-.42,4.64-3.2s-2.6-3.13-4.76-3.13h-0.58v6.34h0Z" transform="translate(51.16 407)"/><path class="cls-20" d="M488.44-327.23h-2.17v-17.5h2.18v17.5h0Z" transform="translate(51.16 407)"/><path class="cls-21" d="M502.76-344.73h9.4v2h-7.22v4.9h7v2h-7v6.61h7.22v2h-9.4v-17.51Z" transform="translate(51.16 407)"/><path class="cls-22" d="M533.67-341.41a3,3,0,0,0-2.82-1.67,2.76,2.76,0,0,0-2.92,2.48c0,1.37,1.35,2.09,2.44,2.51l1.25,0.49c2.48,1,4.34,2.34,4.34,5.27a5.39,5.39,0,0,1-5.33,5.45h-0.26a5.45,5.45,0,0,1-5.41-4.9l2.21-.46a3.31,3.31,0,0,0,3.18,3.44,3.31,3.31,0,0,0,3.44-3.18,3.32,3.32,0,0,0,0-.35c0-1.88-1.51-2.69-3-3.32l-1.21-.51c-2-.86-3.81-2-3.81-4.43,0-2.83,2.51-4.53,5.15-4.53a5,5,0,0,1,4.5,2.65Z" transform="translate(51.16 407)"/></svg>